<?xml version="1.0" encoding="utf-8"?>
<svg version="1.1" xmlns:xlink="http://www.w3.org/1999/xlink" width="20px" height="20px" xmlns="http://www.w3.org/2000/svg">
  <g>
    <path d="M 15 0  L 5 0  C 4.447715250169207 0  4 0.44771525016920677  4 1  L 4 5  L 2 5  C 0.8954305003384131 5  0 5.8954305003384135  0 7  L 0 15  C 0 16.104569499661586  0.8954305003384131 17  2 17  L 4 17  L 4 19  C 4 19.552284749830793  4.447715250169207 20  5 20  L 15 20  C 15.552284749830793 20  16 19.552284749830793  16 19  L 16 17  L 18 17  C 19.104569499661586 17  20 16.104569499661586  20 15  L 20 7  C 20 5.8954305003384135  19.104569499661586 5  18 5  L 16 5  L 16 1  C 16 0.44771525016920677  15.552284749830793 0  15 0  Z M 16 13  C 16 12.447715250169207  15.552284749830793 12  15 12  L 5 12  C 4.447715250169207 12  4 12.447715250169207  4 13  L 4 15  L 2 15  L 2 7  L 18 7  L 18 15  L 16 15  L 16 13  Z M 14 2  L 14 5  L 6 5  L 6 2  L 14 2  Z M 6 8  L 3 8  L 3 10  L 6 10  L 6 8  Z M 6 14  L 14 14  L 14 18  L 6 18  L 6 14  Z " fill-rule="nonzero" fill="#008e1f" stroke="none" />
  </g>
</svg>